PathFileType	4	(X/Y/Z)	64_1_tpose_p0_0-221_filt_butterworth.trc
DataRate	CameraRate	NumFrames	NumMarkers	Units	OrigDataRate	OrigDataStartFrame	OrigNumFrames
60.0	60.0	5	27	m	60.0	165	221
Frame#	Time	RHip			RKnee			RAnkle			RBigToe			RSmallToe			RHeel			LHip			LKnee			LAnkle			LBigToe			LSmallToe			LHeel			Neck			Head			Nose			RShoulder			RElbow			RWrist			RThumb			RIndex			RPinky			LShoulder			LElbow			LWrist			LThumb			LIndex			LPinky			
		X1	Y1	Z1	X2	Y2	Z2	X3	Y3	Z3	X4	Y4	Z4	X5	Y5	Z5	X6	Y6	Z6	X7	Y7	Z7	X8	Y8	Z8	X9	Y9	Z9	X10	Y10	Z10	X11	Y11	Z11	X12	Y12	Z12	X13	Y13	Z13	X14	Y14	Z14	X15	Y15	Z15	X16	Y16	Z16	X17	Y17	Z17	X18	Y18	Z18	X19	Y19	Z19	X20	Y20	Z20	X21	Y21	Z21	X22	Y22	Z22	X23	Y23	Z23	X24	Y24	Z24	X25	Y25	Z25	X26	Y26	Z26	X27	Y27	Z27	
165	2.75	0.32768056709418514	0.7289240612036039	0.5625793926453663	0.3003953535644273	0.9867764878376823	0.936423139911535	0.2533983448730573	1.2272253496168712	1.3219440476872926	0.27883862113549723	1.0690218451031441	1.4101495866203009	0.34089029612263333	1.1083266317118283	1.3890237326226138	0.20304975936775366	1.338130275291848	1.3629432077854104	0.1593099987222727	0.6588452066758442	0.5912480446814965	0.10991567808401319	0.9070425734955796	0.9672918281442495	0.09484087057179218	1.1760887472877688	1.3364584715018972	0.14416156341641786	1.0146468449615456	1.4220683774278535	0.07234271314761131	1.0533205150117346	1.4080986385132526	0.08247497763735111	1.2708539318274206	1.364055377789005	0.24436548431059457	0.4386164351473207	0.17021350303398927	0.28872938750932475	0.27538772911652704	0.004279509770486103	0.28945727041982555	0.2696064493834266	0.13897631122552226	0.38749265976025193	0.4825853711212664	0.21145430697829143	0.616505343809913	0.5776239895209282	0.16461586560690492	0.8322144526811619	0.6247059374225511	0.10465305581626518	0.9623466694674437	0.6338435350786285	0.10765622064261915	0.9742356730621743	0.6823635787694146	0.08490660029286091	0.9475853813034131	0.6553004080396894	0.1208318258330196	0.09597588925182404	0.44336630631571616	0.21665692745695742	-0.15499333214714672	0.4402844941938212	0.22943192329488915	-0.39569944717733213	0.3883399970443447	0.22324414484496646	-0.503372919787745	0.40327950167716137	0.24837268711308058	-0.5003111067098743	0.356118403971168	0.23995285190273205	-0.49609718715289164	0.3787130833394586	0.22931096208312945
166	2.7666666666666666	0.327584297143265	0.7280732449988523	0.5611798831658721	0.30040753447656976	0.9871738347358026	0.9365096943676711	0.2533635288536432	1.2269510316118524	1.3211123879044913	0.2790132958972298	1.068654632225176	1.411255354849918	0.3412282368398004	1.1044470995402387	1.388021113718837	0.20283046107668512	1.338129372268342	1.3625646452206273	0.15962954738437038	0.6592732865556674	0.5911610721574392	0.10949201377833628	0.9080620494216327	0.9685989431808149	0.09435616054530749	1.1768959936762615	1.3378580061350203	0.14753415210099047	1.0132963852044006	1.4215184782829136	0.07209895945471845	1.0537129030619858	1.4093983360614426	0.08251636968155059	1.270401824369437	1.3641070324266853	0.2442542280547736	0.43870671966474006	0.17017226740285507	0.28948457306913106	0.2744190507742852	0.004800803243781469	0.2894773623972301	0.2694672577025949	0.13884939762322585	0.387498948753531	0.48257857394689907	0.21147066102946163	0.6165140761281537	0.577549853846328	0.1646419003126034	0.8322962859007694	0.6244998332932822	0.10475190943025665	0.9615319804887299	0.6333737133456242	0.10789118291954439	0.9738827359941441	0.6797517681631754	0.08608458980345919	0.9475572682177514	0.6518136921130295	0.12041983150325485	0.09632366201691708	0.44378971642237947	0.21693442518567096	-0.15466517783290254	0.4406813664457026	0.22921535971755883	-0.392926592168268	0.3873074679354509	0.2242852466640319	-0.5021412725900688	0.40175615801109843	0.24789570353011198	-0.5005031020909614	0.3566629444243634	0.23913803141890072	-0.49131165902503693	0.37700339175646214	0.2299295559191523
167	2.783333333333333	0.3275405810920965	0.7281619025978457	0.5612733224133211	0.30036107761814174	0.9872018218647993	0.9359560655537845	0.2528588332596611	1.224730508889825	1.3193826506565494	0.27916332227852064	1.0682374089591231	1.4116273872458018	0.34142591565483177	1.0990829920393672	1.3876466188799816	0.2026771339355492	1.338028457374542	1.3617603997640682	0.15949811391600557	0.6596764970827795	0.5911058377196727	0.10950706039096848	0.9089096876527967	0.969858132517633	0.09399968635798904	1.1774240263352358	1.3389140409895657	0.15124983228002306	1.0101295290048689	1.4209720454948462	0.07201610017830913	1.0539788425692374	1.410271573973902	0.08264894526262204	1.2691910295279876	1.3641300126476563	0.24422643384553028	0.4387466970390481	0.1701408864247614	0.2913677842589655	0.2719857380263732	0.006117581503295498	0.28946469747449705	0.2700466241419031	0.1397510978406803	0.38744999664265045	0.4826283848110118	0.21153273873589426	0.6165307993321378	0.5774919028197278	0.16468901070561762	0.8328299775913266	0.6236153722046419	0.10509577398341513	0.960442826909831	0.6334169287301855	0.10790316874475317	0.9744018228865576	0.6823674600617727	0.08474618440359821	0.94914751111299	0.653940632631626	0.1183125707107636	0.09719080748885685	0.444763306490711	0.21701536699589646	-0.1537821468208019	0.4416470665300123	0.2287683782064706	-0.3893994715739139	0.38486403758074056	0.22560862464675185	-0.4981655040370252	0.39569420296115654	0.24900192435765922	-0.5000994240134254	0.35613469580889	0.23918810077307479	-0.4831822552826551	0.37250895464395306	0.23165491915852116
168	2.8	0.32755381973482706	0.7293351318344439	0.562970079592396	0.30030926384134754	0.9871286439645183	0.9354582107610254	0.2529323904024543	1.2198114148063817	1.3176442235348267	0.27925456150527883	1.0681544266540761	1.411611896492885	0.3415711332383364	1.0947091711343115	1.387636818425217	0.20265465793426157	1.3381661287113962	1.3610951926375232	0.15921395215637002	0.659776520472615	0.5910564363238999	0.10967827581362316	0.9094125249452012	0.9711560721287438	0.09387356865687667	1.177531163464033	1.3393295532949148	0.15301872770320393	1.007115259361371	1.4207621500614886	0.0720278427567008	1.0541889654888286	1.410618339155725	0.08278322759890268	1.2681799254142692	1.3641318110963576	0.24423516980403143	0.438759656631916	0.17012477210808125	0.29383560999366815	0.2688064725004069	0.007853100136634527	0.28943201152759174	0.27093148465745065	0.14089048913487065	0.3873451413985216	0.4827151526561064	0.2116309712024377	0.6165435067092785	0.5774708285525052	0.1647327026161276	0.8338990338400819	0.6218010595769435	0.1057500297061244	0.9594291443765666	0.6337094741660743	0.10776183891292065	0.9756156568819968	0.6884498828605307	0.08171586839463443	0.9520091446917738	0.6581446636411902	0.11609967549298142	0.09832456592061532	0.445862740784957	0.21669298782136734	-0.1526021405251491	0.4429133502394957	0.22820624108264337	-0.38676381247698755	0.38169697141332426	0.2265875907227835	-0.49322403190558295	0.388761250210687	0.250795555780096	-0.4994720203609767	0.3553523347565865	0.2394833656530548	-0.4743067872493942	0.3664904461930333	0.23402014475104102
169	2.816666666666667	0.32760929507829656	0.7306951000705242	0.5651133248569764	0.30027189298230866	0.9870573025618917	0.9352277960255542	0.2539039442905846	1.213794731909389	1.3169516998314108	0.27927938564215077	1.0683199376170467	1.4115826330466705	0.34169516859071986	1.0927916561126685	1.3876542371701204	0.20271530826703904	1.3390253459322747	1.3607859198494825	0.15921082916764617	0.6586268914937239	0.5910762037394721	0.10982903463585528	0.9095902596566725	0.9722891277710092	0.09388780169175456	1.1774593930576036	1.3393739860751126	0.1516001997274594	1.0072538011298093	1.4210151427318511	0.07202736501422655	1.0543970120674229	1.4107145463483581	0.08284860871504968	1.2678564335818954	1.3641266882151506	0.24424861305354129	0.4387704651160857	0.1701193810905366	0.29570821286270665	0.26640718848155553	0.009171261743242735	0.28940313258315553	0.27145761381107963	0.14135209829902495	0.38731847988822987	0.48279474632131547	0.21169273947031808	0.6165461415546907	0.577474721282284	0.16474882188760998	0.8351256353028756	0.6191877821503884	0.10669941323891222	0.9587372017044209	0.6335034069905943	0.10778016570284474	0.9766990492435944	0.6936635159570149	0.07909247531066754	0.9549021309483494	0.6589260995314623	0.1157368341028326	0.09918630009316039	0.44660351332552417	0.2163021147967509	-0.15170247742511245	0.4438590650760561	0.22779179373341657	-0.3857428476588878	0.3792999048683926	0.22697022030534197	-0.4897589435664814	0.3844182725015194	0.2521257609868966	-0.49898554167289266	0.354794398495856	0.23969617883773858	-0.46916789758736677	0.36264617585413517	0.23554187126619378
